<svg preserveAspectRatio="none" width="100%" height="100%" overflow="visible" style="display: block;" viewBox="0 0 263.82 154.722" fill="none" xmlns="http://www.w3.org/2000/svg">
<g id="logo" clip-path="url(#clip0_0_334)">
<path id="Vector" d="M243.886 65.2608C245.969 62.8805 247.258 59.9051 247.655 57.128C248.051 54.5493 249.44 47.4083 250.035 44.7304C250.531 42.3501 251.126 42.0526 252.911 41.8542C253.606 41.755 254.002 41.755 254.597 41.8542L259.457 42.2509L263.821 19.1418L254.796 20.1337C253.11 20.332 251.523 20.8279 250.035 21.6214L241.307 22.6132L224.546 24.5968L202.23 27.1755L201.833 29.0599C198.957 27.5722 195.287 27.0763 190.626 27.5722C184.477 28.2665 180.014 30.6468 176.741 33.8206C176.641 33.7214 176.641 33.6222 176.542 33.6222C174.856 31.837 171.782 29.8533 166.228 30.4484C166.029 30.4484 165.732 30.5476 165.434 30.5476L167.418 19.8361L155.02 21.3238C148.474 22.1173 144.11 26.1837 143.118 32.5312C142.92 33.8206 141.928 39.1763 140.639 45.9206L127.051 47.5075C128.043 38.8788 126.654 32.6304 122.886 28.564C122.191 27.8697 121.299 27.0763 120.208 26.382C125.563 25.1919 129.332 21.6214 130.027 17.0591C130.423 14.3812 131.911 7.24018 131.911 7.141L133.399 0L82.4199 5.85164L69.4273 62.5829C68.5346 67.2444 68.5346 71.3108 69.3281 74.7821C69.1297 74.683 68.9314 74.5838 68.733 74.4846C68.6338 74.3854 68.4355 74.3854 68.3363 74.2862C68.3363 74.2862 68.2371 74.1871 68.1379 74.0879L67.9396 73.8895C65.3609 70.4182 63.774 68.2362 63.3773 67.3436C63.3773 67.2444 63.2781 67.1452 63.2781 66.9469C62.4846 64.6657 60.4018 58.5165 50.2854 58.5165H49.9879C43.5411 58.6157 40.2682 59.4092 38.4829 59.8059C38.1854 59.9051 37.987 59.9051 37.7887 60.0042C37.6895 60.0042 37.4911 60.0042 37.392 60.0042C37.4911 58.3182 37.392 56.5329 37.0944 54.6485L36.9952 54.0534C36.5985 50.4829 33.1272 45.5239 27.8706 45.5239C27.3747 45.5239 26.8788 45.5239 26.2837 45.6231C17.9526 47.1108 16.9608 51.4747 16.9608 53.26C16.8616 55.7395 18.2501 60.8969 18.3493 61.4919C18.4485 61.6903 18.4485 61.9878 18.5476 62.2854C18.5476 62.3846 18.6468 62.5829 18.6468 62.6821C18.5476 62.6821 18.3493 62.7813 18.1509 62.7813C17.2583 63.0788 15.5722 63.4756 14.1837 64.6657C13.787 63.4756 13.1919 62.4838 12.7952 61.8887C12.1009 60.8969 11.1091 60.2026 9.91893 60.0042C9.7206 60.0042 8.43126 59.7067 6.94355 59.7067C2.28206 59.7067 1.09189 62.4837 0.794355 63.6739C0.496813 64.8641 0.595988 65.9551 0.695168 66.9469C0.695168 67.3436 0.794349 68.0379 0.695168 68.3354C0.000904155 70.7157 0.000904111 76.0715 0.199266 78.4518C0.794349 83.9067 3.5714 87.3781 7.34026 87.3781C8.92715 87.3781 10.4148 86.783 11.8034 85.5928C13.8862 83.9068 15.8698 82.5182 17.1591 81.6256C17.7542 83.0141 18.2501 84.7994 18.6468 86.4854C19.2419 88.7666 19.7378 90.651 20.6304 91.9404C20.8288 92.2379 21.1263 92.7338 21.5231 93.2297C21.4239 93.4281 21.2255 93.6264 21.1263 93.8248C20.3329 95.015 19.6386 97.0978 20.4321 99.7756C21.6222 103.842 24.5977 114.851 25.3911 118.322C25.0936 118.521 24.796 118.818 24.5977 119.017C24.4985 119.017 24.3993 119.017 24.3001 119.017C23.5067 119.116 19.3411 120.008 18.0517 123.678C17.4567 125.364 17.3575 128.042 20.2337 131.216C20.5313 131.513 20.8288 131.811 21.2255 132.009C21.3247 132.009 23.1099 133.1 25.7878 134.191C26.5813 134.489 27.3747 134.886 28.069 135.183C29.6559 135.877 31.0444 136.572 32.6313 136.869C33.2264 136.968 33.8215 137.068 34.4165 137.068C36.4993 137.068 37.6895 136.175 38.3838 135.381C40.0698 133.497 39.7723 131.117 39.6731 130.422C39.5739 129.827 39.5739 129.133 39.5739 128.34C39.5739 127.546 39.5739 126.753 39.4747 125.959C41.8551 128.736 44.4338 131.117 45.8223 132.505L46.1198 132.803C46.5166 133.1 47.0125 133.596 47.5084 134.092L45.3264 145.795L56.2363 144.506C57.2281 145.696 58.319 146.192 59.3109 146.49C59.8068 147.878 60.4018 149.663 60.6002 150.259C61.4928 152.738 64.3691 154.027 66.6502 154.027C68.1379 154.027 69.5264 153.432 70.5183 152.441C71.5101 151.449 72.1051 150.06 72.006 148.572C72.006 146.886 71.6092 144.704 71.2125 142.721L73.3945 142.423C73.8904 142.324 74.2871 142.225 74.783 142.126V142.225L95.2142 139.845L108.802 138.258C109.199 138.159 109.695 138.059 110.091 138.059V138.159L138.259 134.886C138.754 134.786 139.151 134.687 139.647 134.588V134.687L182.592 129.728L182.989 127.844C184.973 128.935 187.353 129.629 190.13 129.629C191.023 129.629 191.915 129.53 192.907 129.431C195.287 129.133 197.469 128.637 199.354 127.745L214.528 125.959L228.017 124.372C233.769 123.678 237.737 120.008 238.927 114.256C239.324 112.272 240.117 108.305 240.712 105.131C241.01 105.429 241.307 105.726 241.704 106.024C243.092 107.214 244.878 107.809 246.663 107.809C246.96 107.809 247.258 107.809 247.655 107.71C249.837 107.413 251.622 106.421 253.01 104.735C254.399 103.049 254.895 100.966 254.697 98.7838C254.399 96.6019 253.407 94.8166 251.721 93.4281C250.333 92.3371 248.647 91.742 246.861 91.742L262.929 62.8805L243.886 65.2608ZM198.56 70.2198C198.461 70.2198 198.362 70.319 198.164 70.4182C198.263 70.319 198.362 70.2198 198.461 70.1206L198.56 70.2198ZM49.3928 110.19C49.2936 109.694 49.1944 108.702 49.0953 107.908C49.1944 107.809 49.2936 107.71 49.3928 107.611C51.4756 105.528 54.0543 102.949 53.1617 99.5773C53.0625 99.2797 52.9633 98.883 52.8641 98.3871C51.9715 94.5191 51.2772 91.6428 49.6903 89.9568C49.3928 89.6592 49.1944 89.3617 48.8969 89.1633C48.1034 88.3699 47.6075 87.874 47.2108 87.1797C47.1116 86.8822 46.6157 85.4936 46.6157 80.0387C46.6157 78.3526 47.4092 76.8649 48.1035 75.3772C48.401 74.7821 48.6985 74.1871 48.9961 73.592C49.1944 73.1952 50.2854 72.3026 50.7813 72.1043L51.0789 72.0051C51.178 72.0051 51.178 72.0051 51.2772 71.9059C51.7731 72.501 52.3682 73.0961 53.0625 73.7903C53.9551 74.7821 55.542 76.369 55.9387 76.8649C56.4346 77.6584 57.0297 78.3526 57.6248 79.0469C57.724 79.1461 57.9223 79.3444 58.1207 79.5428C58.1207 80.6338 58.1207 81.824 58.1207 82.0223C58.1207 83.3117 58.7158 84.5018 59.7076 85.2953C60.4018 85.7912 61.0961 86.1879 61.9887 86.1879L57.0297 86.783L51.7731 114.454C50.6821 112.669 49.6903 110.785 49.3928 110.19Z" fill="var(--fill-0, white)"/>
<path id="Vector_2" fill-rule="evenodd" clip-rule="evenodd" d="M117.232 131.91C117.232 131.91 134.687 129.927 138.159 129.53C141.63 129.133 144.605 126.753 145.101 124.075C145.498 121.298 146.093 118.719 146.093 118.719L130.72 120.504L132.505 110.983L146.391 109.396L148.275 99.6766L134.39 101.263L135.977 93.1307L150.755 91.4446L152.639 81.3282L126.257 84.4028L117.232 131.91Z" fill="var(--fill-0, black)" stroke="var(--stroke-0, #FFF200)" stroke-width="1.36492" stroke-miterlimit="3.8637"/>
<path id="Vector_3" fill-rule="evenodd" clip-rule="evenodd" d="M146.687 128.538L158.291 127.248L161.961 108.107L165.036 107.71C167.813 107.412 168.606 108.702 167.515 114.057L166.92 117.231C166.523 119.215 165.73 123.777 166.325 126.157L178.623 124.769L178.723 124.075C178.028 123.777 177.929 123.281 177.731 122.785C177.334 121.893 177.929 118.719 178.425 116.239L179.219 112.173C180.409 105.825 179.417 102.255 173.962 102.354V102.255C179.417 100.767 182.492 96.4032 183.682 90.0557C185.07 82.7163 182.69 77.7573 173.863 78.7491L155.713 80.8319L146.687 128.538ZM165.631 88.3696L167.912 88.0721C171.383 87.6753 172.474 89.1631 171.78 93.0311C171.185 96.4032 169.102 98.8827 165.829 99.2795L163.548 99.577L165.631 88.3696Z" fill="var(--fill-0, black)" stroke="var(--stroke-0, #FFF200)" stroke-width="1.36492" stroke-miterlimit="3.8637"/>
<path id="Vector_4" fill-rule="evenodd" clip-rule="evenodd" d="M199.056 105.33L203.122 104.834C201.436 113.165 199.75 115.049 197.271 115.347C193.7 115.744 193.998 112.372 196.477 99.3789C198.957 86.4854 199.949 82.9149 203.718 82.5182C205.106 82.3199 205.8 83.0141 205.999 84.3035C206.197 85.4936 205.999 87.3781 205.602 89.7584L216.809 88.4691C218.991 76.8649 214.032 73.0961 205.8 74.0879C192.113 75.6748 187.551 84.7994 184.476 100.867C181.501 116.636 180.807 125.563 192.609 124.174C196.577 123.678 200.841 122.19 203.222 117.926H203.321L202.726 122.091L210.561 121.199L215.421 95.2133L200.445 96.8994L199.056 105.33Z" fill="var(--fill-0, black)" stroke="var(--stroke-0, #FFF200)" stroke-width="1.36492" stroke-miterlimit="3.8637"/>
<path id="Vector_5" fill-rule="evenodd" clip-rule="evenodd" d="M221.469 119.91C221.469 119.91 224.246 119.612 227.718 119.216C231.189 118.819 233.371 116.835 234.065 113.265C234.759 109.694 236.644 99.7762 236.644 99.7762L253.504 69.5261L240.809 71.0139L233.272 88.1721H233.172L231.982 72.0057L219.287 73.4934L225.139 101.165L221.469 119.91Z" fill="var(--fill-0, black)" stroke="var(--stroke-0, #FFF200)" stroke-width="1.36492" stroke-miterlimit="3.8637"/>
<path id="Vector_6" d="M67.1486 150.06C66.256 150.06 64.9666 149.465 64.6691 148.77C64.3715 147.878 63.0822 144.109 62.7846 143.216C62.7846 143.117 62.2887 143.018 61.9912 142.919C61.2969 142.819 60.4043 142.72 59.7101 141.927C59.115 141.233 58.9166 140.439 58.7182 139.646C58.5199 138.951 58.3215 138.257 57.9248 137.662C57.2305 136.769 54.3543 134.191 52.0731 132.207C50.9822 131.215 49.9904 130.422 49.3953 129.827L49.0977 129.529C47.1141 127.645 42.9485 123.777 40.1715 119.611C38.1879 116.537 35.7084 115.049 34.6174 114.355C34.8157 116.437 35.4108 121.892 35.9067 123.578C36.4026 124.967 36.4026 126.653 36.4026 128.24C36.4026 129.133 36.4026 130.025 36.5018 130.719C36.601 131.711 36.5018 132.405 36.2043 132.802C35.9067 133.1 35.6092 133.199 35.0141 133.199C34.7165 133.199 34.3198 133.1 33.8239 133.1C32.8321 132.901 31.642 132.405 30.2534 131.711C29.46 131.314 28.6665 130.918 27.7739 130.62C25.2944 129.628 23.7075 128.637 23.6083 128.637L23.5091 128.537C22.2198 127.149 21.7239 125.86 22.1206 124.868C22.7157 123.182 25.2944 122.785 25.3936 122.686C25.3936 122.686 25.3936 122.686 25.4928 122.686H25.5919L28.0715 123.281L27.8731 121.694C27.8731 121.496 27.9723 121.297 28.1706 121.198L29.5592 120.801C29.7575 120.305 30.0551 119.214 29.7575 118.123C29.3608 116.537 25.6911 102.75 24.501 98.4857C24.2034 97.3947 24.3026 96.4029 24.7985 95.6095C25.3936 94.6177 26.3854 94.221 27.0796 93.9234C26.4846 92.9316 24.9969 90.5513 24.2034 89.4603C23.7075 88.6668 23.3108 87.1791 22.8149 85.2947C22.319 83.3111 21.7239 81.0299 20.9305 79.3439C20.137 77.8562 19.2444 77.0627 18.1534 77.0627C17.6575 77.0627 17.1616 77.2611 16.864 77.4594C16.6657 77.5586 16.4673 77.757 16.0706 77.9553C14.7813 78.848 12.4009 80.3357 9.92141 82.4185C9.22716 83.0136 8.53289 83.3111 7.93781 83.3111C5.35911 83.3111 4.66485 78.6496 4.56567 77.757C4.26813 75.575 4.46648 70.8143 4.8632 69.0291C5.06156 68.2357 4.96239 67.2439 4.96239 66.3512C4.86321 65.5578 4.86321 64.8635 4.96239 64.3676C5.16075 63.3758 6.84682 63.3758 7.44191 63.3758C8.53289 63.3758 9.72306 63.5742 9.72306 63.5742C9.82224 63.5742 9.92141 63.6734 10.0206 63.7725C10.3181 64.2684 11.7067 66.5496 10.814 67.7398C10.219 68.6324 9.02879 68.8307 8.23535 68.8307L9.12798 75.1783C10.219 74.6824 12.0042 73.7898 12.5001 73.2939L12.7976 72.9963C13.6903 72.1037 15.4755 70.5168 15.9714 68.8307C16.4673 67.0455 18.1534 66.5496 19.4427 66.252C19.8395 66.1529 20.3354 66.0537 20.6329 65.8553C21.1288 65.657 21.9223 65.5578 23.1124 65.5578C23.8067 65.5578 24.4018 65.5578 24.9969 65.657C24.501 65.2602 24.005 64.7643 23.6083 64.4668C22.9141 63.7725 22.7157 62.4832 22.4182 61.293C22.319 60.9955 22.319 60.6979 22.2198 60.4004C22.2198 60.3012 20.9305 55.243 20.9305 53.2594C20.9305 51.375 23.2116 49.9864 27.0796 49.2922C27.3772 49.193 27.6747 49.193 27.9723 49.193C31.3444 49.193 33.2288 52.8627 33.328 54.3504L33.4272 54.9455C33.6256 56.8299 34.0223 59.9045 33.2288 61.293C32.7329 62.1856 33.328 63.2766 33.6256 63.6733C34.2206 63.6733 35.6092 63.5742 36.7002 63.5742C37.1961 63.5742 37.5928 63.5742 37.8903 63.5742C38.2871 63.5742 38.783 63.475 39.378 63.2766C41.1633 62.8799 44.1387 62.1856 50.0895 62.0865H50.3871C57.8256 62.0865 59.115 65.8553 59.8092 67.9381C59.9084 68.2357 60.0076 68.5332 60.1068 68.8307C60.9002 70.4176 63.7765 74.2857 65.0658 75.9717L65.2642 76.1701C66.0576 77.2611 66.6527 77.4594 67.5453 77.757C67.8429 77.8562 68.2396 78.0545 68.6363 78.2529C70.2232 79.0463 69.6281 81.1291 69.2314 82.3193C69.2314 82.5177 69.1322 82.6168 69.1322 82.716C68.8347 83.9062 67.7437 84.2037 66.9502 84.5013C66.7519 84.6004 66.6527 84.6004 66.4543 84.6996C66.3551 84.7988 66.1568 84.7988 66.0576 84.7988C65.7601 84.7988 65.5617 84.6996 65.3633 84.5013C64.8674 83.9062 64.8674 82.8152 64.9666 82.1209C64.9666 81.8234 64.8674 81.5259 64.7683 81.3275C64.6691 81.2283 64.5699 81.1291 64.4707 81.1291C64.3715 81.1291 64.2724 81.2283 64.1732 81.3275C63.2805 82.1209 62.5863 82.3193 62.5863 82.3193H62.4871C62.3879 82.3193 62.2887 82.3193 62.1896 82.2201C62.0904 82.1209 61.9912 82.0218 61.9912 81.9226C61.9912 81.8234 61.9912 79.6414 61.9912 78.5504C61.9912 78.0545 61.0986 77.0627 60.5035 76.3685C60.0076 75.7734 59.5117 75.2775 59.2141 74.8808C58.9166 74.2857 57.1314 72.5004 55.842 71.1119C54.8502 70.1201 53.8584 69.1283 53.3625 68.5332C52.9658 68.1365 52.5691 67.9381 51.974 67.9381C51.2797 67.9381 50.3871 68.2357 49.8912 68.434L49.5936 68.5332C48.6018 68.8307 46.3207 70.4176 45.6264 72.1037C45.4281 72.5996 45.1305 73.0955 44.9321 73.5914C44.0395 75.2775 42.9485 77.3603 42.9485 80.0381C42.9485 83.0136 43.0477 87.1791 43.9403 88.8652C44.6346 90.1546 45.4281 90.948 46.3207 91.8406C46.519 92.039 46.8166 92.3365 47.1141 92.6341C48.1059 93.6259 48.701 96.3038 49.3953 99.2792C49.4945 99.8743 49.5936 100.271 49.6928 100.668C49.9904 101.957 48.4035 103.544 46.9158 105.032C46.3207 105.627 45.7256 106.222 45.6264 106.519C45.3289 107.313 45.7256 110.487 46.0231 111.478C46.3207 112.47 49.1969 117.429 50.5854 119.512C52.0731 121.793 53.7592 123.678 55.4453 124.868C56.933 125.959 58.1232 128.141 58.9166 129.827C59.2142 130.422 59.5117 130.918 59.7101 131.215C60.3051 132.108 61.3961 132.505 63.0822 132.505C63.5781 132.505 64.074 132.505 64.5699 132.405C64.7683 132.405 64.9666 132.405 65.165 132.405C66.0576 132.405 66.6527 132.604 67.1486 133.1C67.7437 133.695 67.6445 134.488 67.6445 134.587C67.6445 134.587 67.7437 139.051 67.942 140.737C68.0412 141.332 68.1404 142.324 68.3388 143.315C68.6363 145.101 69.033 147.183 69.033 148.473C69.033 148.969 68.9338 149.365 68.6363 149.663C68.1404 149.861 67.6445 150.06 67.1486 150.06Z" fill="var(--fill-0, black)"/>
<path id="Vector_7" d="M27.9693 49.5905C31.0439 49.5905 32.73 52.9626 32.9284 54.3512C33.1267 55.9381 33.7219 59.6077 32.8293 61.0954C31.9367 62.5832 33.3252 64.17 33.3252 64.17C33.3252 64.17 35.2095 64.0709 36.6972 64.0709C37.1931 64.0709 37.5898 64.0709 37.8874 64.0709H37.9866C39.2759 64.0709 41.8547 62.7815 50.1859 62.6823C50.2851 62.6823 50.3841 62.6823 50.4833 62.6823C58.8145 62.6823 59.0128 67.5422 59.8063 69.1291C60.5997 70.8151 63.7735 74.8815 64.9637 76.5676C66.1538 78.2537 67.0465 78.0553 68.435 78.8488C69.8235 79.543 69.0301 81.725 68.6334 82.816C68.3358 84.0062 67.0465 84.1053 66.253 84.4029C66.1538 84.4029 66.0548 84.5021 66.0548 84.5021C65.4597 84.5021 65.3604 83.3119 65.3604 82.3201C65.4596 81.5266 64.9637 80.8324 64.3686 80.8324C64.1702 80.8324 63.9719 80.9316 63.6743 81.1299C62.8809 81.9234 62.2858 82.0225 62.2858 82.0225C62.2858 82.0225 62.2858 79.7414 62.2858 78.6504C62.2858 77.5594 60.1038 75.7742 59.5087 74.7824C58.9137 73.6914 54.8473 69.7242 53.5579 68.3356C53.062 67.7405 52.4669 67.5422 51.7727 67.5422C50.7809 67.5422 49.7892 67.9389 49.1941 68.1373C48.1031 68.534 45.7227 70.1209 44.9292 72.0053C44.1358 73.8897 42.1522 76.5676 42.1522 80.1381C42.1522 83.7086 42.3506 87.4775 43.2432 89.1636C44.1359 90.8496 45.2267 91.7422 46.4169 93.0316C47.6071 94.2218 48.4005 99.28 48.8964 100.768C49.2932 102.355 45.1276 105.429 44.83 106.322C44.5325 107.214 44.8301 110.587 45.2268 111.578C45.5244 112.57 48.4997 117.728 49.7891 119.711C51.0784 121.794 52.8637 123.778 54.7481 125.166C56.6325 126.555 58.1202 130.125 58.9137 131.414C59.6079 132.406 60.7981 132.902 62.6825 132.902C63.1784 132.902 63.6743 132.902 64.2694 132.803C64.4678 132.803 64.6661 132.803 64.8645 132.803C67.0465 132.803 66.8481 134.489 66.8481 134.489C66.8481 134.489 66.9473 138.952 67.1456 140.737C67.344 142.523 68.2366 146.391 68.2366 148.474C68.2366 149.366 67.7408 149.664 67.0466 149.664C66.1539 149.664 65.162 149.168 64.9637 148.672C64.6661 147.779 63.3769 143.911 63.0794 143.118C62.7818 142.225 60.8973 142.919 59.9055 141.729C58.9137 140.539 59.1121 138.952 58.1203 137.464C57.1285 136.076 51.3759 131.315 49.4915 129.53C47.6071 127.745 43.2431 123.778 40.3669 119.414C37.4907 115.05 33.9202 113.661 33.9202 113.661C33.9202 113.661 34.6145 121.596 35.3088 123.778C36.0031 125.96 35.6062 128.637 35.9038 130.819C36.1021 132.406 35.7054 132.803 34.912 132.803C34.6144 132.803 34.2178 132.704 33.8211 132.704C32.3334 132.505 30.4488 131.315 27.9693 130.224C25.4898 129.233 23.903 128.241 23.903 128.241C19.9358 123.976 25.4898 123.182 25.4898 123.182L28.5644 123.976L28.2669 121.794L29.9529 121.397C29.9529 121.397 30.6472 119.81 30.2505 118.223C29.8538 116.637 26.2833 103.049 24.9939 98.5857C24.0021 95.1144 27.771 94.5193 27.771 94.5193C27.771 94.5193 25.589 90.9488 24.5972 89.5603C23.6054 88.1717 23.0103 82.816 21.3242 79.4439C20.3324 77.4602 19.0431 76.8652 18.0513 76.8652C17.357 76.8652 16.8611 77.0635 16.5636 77.3611C15.7701 77.9561 12.6955 79.7414 9.62097 82.4193C9.02588 82.9152 8.43081 83.2127 7.93491 83.2127C6.05048 83.2127 5.25703 79.8406 4.95949 78.0553C4.66195 75.8733 4.86031 71.2119 5.25703 69.5258C5.65375 67.8397 5.05866 65.9553 5.3562 64.8643C5.45538 64.3684 6.44719 64.17 7.33981 64.17C8.4308 64.17 9.62097 64.3684 9.62097 64.3684C9.62097 64.3684 11.2079 66.8479 10.5136 67.8397C9.81934 68.7324 8.23244 68.8315 7.83572 68.8315H7.73654L8.82752 76.2701C8.82752 76.2701 12.1004 74.7824 12.8939 73.9889C13.6873 73.2947 15.8694 71.4102 16.4645 69.3274C17.0596 67.2446 19.4398 67.2446 20.8283 66.6496C21.3242 66.4512 22.2169 66.352 23.2087 66.352C24.8947 66.352 26.68 66.5504 26.68 66.5504C26.68 66.5504 24.7956 65.261 24.1013 64.3684C23.407 63.575 23.1095 61.7897 22.8119 60.5004C22.5144 59.211 21.5226 55.0454 21.5226 53.4585C21.5226 51.8717 23.8038 50.4831 27.3743 49.888C27.4735 49.5905 27.771 49.5905 27.9693 49.5905ZM27.9693 48.6979C27.6718 48.6979 27.3742 48.6979 26.9775 48.7971C22.8119 49.5905 20.4317 51.1774 20.4317 53.2602C20.3325 55.2438 21.721 60.5004 21.721 60.5004C21.8201 60.7979 21.8202 61.0954 21.9194 61.393C22.217 62.6823 22.5144 63.9717 23.2087 64.7651C23.3078 64.8643 23.407 65.0627 23.6054 65.1618C23.407 65.1618 23.2087 65.1618 23.0103 65.1618C21.721 65.1618 20.8283 65.261 20.3324 65.5586C20.0349 65.6578 19.6382 65.8561 19.2414 65.9553C17.9521 66.352 16.0678 66.8479 15.4727 68.8315C14.9768 70.4184 13.2906 72.0053 12.398 72.7988C12.2988 72.8979 12.1996 72.9971 12.1004 73.0963C11.8029 73.3938 10.5136 74.0881 9.42261 74.6832L8.62916 69.4266C9.4226 69.3274 10.4145 68.9307 11.0096 68.1373C12.0014 66.7487 10.6127 64.2692 10.216 63.575C10.1168 63.3766 9.81933 63.1782 9.62097 63.1782C9.62097 63.1782 8.43081 62.9799 7.24064 62.9799C6.64556 62.9799 4.66194 62.9799 4.3644 64.3684C4.16604 65.0627 4.26522 65.7569 4.3644 66.5504C4.46358 67.443 4.46359 68.2364 4.26523 69.0299C3.76932 70.8151 3.67013 75.5758 3.86849 77.857C3.96767 78.8488 4.66195 83.8078 7.73654 83.8078C8.43081 83.8078 9.22425 83.5103 10.0177 82.816C12.4973 80.8324 14.8775 79.2455 16.1668 78.3529C16.5636 78.1545 16.762 77.9561 16.9604 77.857C17.1587 77.7578 17.5555 77.5594 17.9522 77.5594C19.1424 77.5594 19.9357 78.6504 20.3324 79.6422C21.1259 81.3283 21.721 83.5103 22.2169 85.4939C22.7128 87.4775 23.1095 89.0644 23.7046 89.8578C24.3988 90.7504 25.589 92.6349 26.2833 93.825C25.589 94.1226 24.7956 94.6185 24.2997 95.4119C23.7046 96.3045 23.6054 97.3955 24.0021 98.6849C25.1923 102.95 28.9611 116.736 29.2587 118.323C29.457 119.116 29.2587 120.009 29.1595 120.505L27.9693 120.802C27.5726 120.901 27.2751 121.298 27.2751 121.794L27.3743 122.687L25.589 122.191C25.4898 122.191 25.4899 122.191 25.3907 122.191H25.2915C24.9939 122.191 22.316 122.687 21.721 124.67C21.3242 125.86 21.8201 127.348 23.2087 128.836C23.3078 128.935 23.3079 128.935 23.4071 129.034C23.5063 129.034 25.0931 130.026 27.6718 131.018C28.5644 131.414 29.3579 131.712 30.1513 132.109C31.5398 132.803 32.7301 133.299 33.8211 133.497C34.317 133.596 34.7136 133.596 35.1103 133.596C35.3087 133.596 36.1021 133.596 36.598 133.001C37.1931 132.406 37.0939 131.414 37.0939 130.621C36.9948 129.828 36.9948 129.034 36.9948 128.142C36.9948 126.555 36.9948 124.869 36.4989 123.381C36.1021 121.992 35.6063 117.827 35.3088 115.149C36.499 115.942 38.3833 117.331 39.9702 119.81C42.7472 124.075 46.9128 127.943 48.8964 129.828L49.1941 130.125C49.7892 130.72 50.7809 131.514 51.8718 132.505C54.0538 134.39 57.0292 137.068 57.7235 137.96C58.1202 138.555 58.3186 139.151 58.5169 139.845C58.7153 140.638 59.0129 141.531 59.608 142.225C60.4015 143.118 61.3932 143.316 62.1866 143.415C62.385 143.415 62.5833 143.514 62.6825 143.514C63.0793 144.605 64.2695 148.176 64.5671 148.969C64.9638 149.961 66.3522 150.556 67.4432 150.556C68.0383 150.556 68.6334 150.358 68.9309 149.961C69.2284 149.664 69.5261 149.267 69.5261 148.474C69.5261 147.085 69.1293 145.002 68.8317 143.217C68.6334 142.225 68.5342 141.333 68.435 140.737C68.2366 139.151 68.1375 134.985 68.1375 134.588C68.1375 134.291 68.1376 133.497 67.5425 132.803C67.0466 132.208 66.253 131.91 65.2612 131.91C65.0629 131.91 64.8646 131.91 64.5671 131.91C64.0712 132.01 63.5753 132.01 63.0794 132.01C61.5916 132.01 60.5998 131.613 60.1039 130.919C59.9056 130.621 59.6079 130.125 59.3104 129.53C58.4178 127.844 57.2277 125.563 55.6408 124.472C54.0539 123.282 52.3677 121.496 50.88 119.215C49.4915 117.033 46.6153 112.074 46.4169 111.281C46.0202 110.19 45.8218 107.214 46.0202 106.619C46.1194 106.421 46.8137 105.826 47.2105 105.33C48.7973 103.743 50.4833 102.057 50.0866 100.47C49.9874 100.173 49.8882 99.6767 49.7891 99.1808C49.0948 96.2054 48.4997 93.4283 47.4087 92.3373C47.1112 92.0398 46.9128 91.8414 46.6153 91.5439C45.7227 90.6513 44.9292 89.8578 44.3341 88.6676C43.3423 86.7832 43.3423 81.725 43.3423 80.0389C43.3423 77.5594 44.4334 75.4766 45.2268 73.7906C45.5244 73.2947 45.7227 72.6996 46.0202 72.3029C46.7145 70.716 48.7973 69.2283 49.69 68.9307L49.9874 68.8315C50.5825 68.6332 51.2768 68.3356 51.971 68.3356C52.4669 68.3356 52.7645 68.4348 53.062 68.8315C53.5579 69.4266 54.5497 70.4184 55.5415 71.5094C56.8309 72.7988 58.6161 74.6832 58.9137 75.1791C59.2112 75.675 59.7071 76.1709 60.203 76.766C60.6989 77.2619 61.5916 78.2537 61.5916 78.5512C61.4925 79.6422 61.5916 81.9234 61.5916 81.9234C61.5916 82.2209 61.6907 82.4193 61.8891 82.6176C62.0874 82.7168 62.2858 82.816 62.4842 82.816C62.5833 82.816 62.5833 82.816 62.6825 82.816C62.8809 82.816 63.5752 82.6176 64.5671 81.725C64.6662 81.8242 64.6661 81.9234 64.6661 82.2209C64.567 83.1135 64.6661 84.3037 65.2612 84.998C65.5588 85.2955 65.8563 85.4939 66.253 85.4939C66.4514 85.4939 66.6498 85.4939 66.8481 85.3947C66.9473 85.2955 67.1457 85.2955 67.344 85.1963C68.1375 84.8988 69.4268 84.5021 69.8235 83.1135C69.8235 83.0144 69.9227 82.816 69.9227 82.7168C70.3194 81.4275 71.0137 79.0471 69.1293 78.0553C68.7325 77.857 68.3358 77.6586 67.9391 77.5594C67.1457 77.2619 66.6498 77.0635 65.8563 76.0717L65.6579 75.8734C64.3686 74.1873 61.4924 70.3192 60.7981 68.8315C60.6989 68.6332 60.5997 68.3356 60.5006 68.0381C59.8063 65.8561 58.4179 61.8889 50.6818 61.8889H50.3841C44.3341 61.9881 41.2595 62.6823 39.5735 63.0791C38.9784 63.1782 38.4825 63.2774 38.1849 63.2774H38.0857C37.7882 63.2774 37.3916 63.2774 36.7965 63.2774C35.8047 63.2774 34.6144 63.2774 33.9202 63.3766C33.7218 62.9799 33.4243 62.2856 33.7218 61.7897C34.6144 60.4012 34.3169 57.7233 34.0193 55.1446C34.0193 54.9463 33.9202 54.7479 33.9202 54.5495C33.6226 52.3676 31.639 48.6979 27.9693 48.6979Z" fill="var(--fill-0, #FFF200)"/>
<path id="Vector_8" fill-rule="evenodd" clip-rule="evenodd" d="M52.4683 139.349C52.4683 139.349 69.9241 137.365 73.3954 136.968C76.8668 136.572 79.8422 134.191 80.3381 131.513C80.7348 128.736 81.3299 126.158 81.3299 126.158L65.9569 127.943L67.7422 118.422L81.6274 116.835L83.5119 107.115L69.6266 108.702L71.2135 100.569L85.9914 98.8831L87.8758 88.6675L61.4938 91.7421L52.4683 139.349Z" fill="var(--fill-0, black)" stroke="var(--stroke-0, #FFF200)" stroke-width="1.36492" stroke-miterlimit="3.8637"/>
<path id="Vector_9" fill-rule="evenodd" clip-rule="evenodd" d="M81.9196 135.977L92.7303 134.687L98.2844 105.231H98.3836L100.565 133.795C100.565 133.795 105.822 133.2 108.698 132.902C111.575 132.605 113.657 130.72 114.252 127.15C114.847 123.579 122.286 84.6013 122.286 84.6013L111.475 85.8906L105.921 115.347H105.822L103.938 86.7832L90.9451 88.271L81.9196 135.977Z" fill="var(--fill-0, black)" stroke="var(--stroke-0, #FFF200)" stroke-width="1.36492" stroke-miterlimit="3.8637"/>
<path id="Vector_10" fill-rule="evenodd" clip-rule="evenodd" d="M77.6585 51.6736L94.0233 49.7892C94.8168 45.4253 97.1971 43.3425 100.173 42.9458C103.445 42.549 104.735 45.2269 103.247 53.4589C100.569 67.6417 98.5856 69.5261 95.1143 69.9229C92.0397 70.3196 90.552 68.5343 91.8414 61.4925L92.3373 59.013L75.4766 60.9966L74.9807 63.377C72.5011 76.7663 77.5594 83.8081 93.5274 81.9237C110.586 79.9401 117.926 69.7245 121.496 50.5827C124.472 34.813 119.81 27.8703 108.702 29.1597C103.545 29.7547 98.8832 32.3334 94.916 36.0031L97.9906 23.5064C97.9906 23.5064 114.157 21.6219 117.727 21.2252C121.397 20.8285 124.472 18.9441 124.968 16.0678C125.364 13.1916 126.852 5.95141 126.852 5.95141L86.8823 10.5137L77.6585 51.6736Z" fill="var(--fill-0, black)" stroke="var(--stroke-0, #FFF200)" stroke-width="1.36492" stroke-miterlimit="3.8637"/>
<path id="Vector_11" fill-rule="evenodd" clip-rule="evenodd" d="M140.737 75.0793L151.944 73.7899L156.507 49.8874C157.102 46.912 158.094 45.5235 160.077 45.3251C162.061 45.1267 162.557 46.3169 162.061 49.2923L157.499 73.1948C157.499 73.1948 160.573 72.7981 163.648 72.5006C166.722 72.1038 169.103 69.6243 169.896 65.8555C170.69 62.0866 173.863 44.6308 173.863 44.6308C175.252 37.0931 171.582 35.3079 166.921 35.8038C164.144 36.1013 160.772 37.589 158.193 41.6554H158.094L161.069 26.0841C161.069 26.0841 160.176 26.1832 155.912 26.6792C151.647 27.1751 149.267 29.5554 148.671 33.4234C147.977 37.0931 140.737 75.0793 140.737 75.0793Z" fill="var(--fill-0, black)" stroke="var(--stroke-0, #FFF200)" stroke-width="1.36492" stroke-miterlimit="3.8637"/>
<path id="Vector_12" fill-rule="evenodd" clip-rule="evenodd" d="M202.033 50.2844C204.017 39.8704 204.513 31.3409 191.322 32.8286C178.627 34.3163 175.155 44.036 173.37 53.5574C171.387 63.9713 170.99 72.5008 184.082 71.0131C196.777 69.5254 200.248 59.8057 202.033 50.2844ZM184.578 52.268C186.264 43.0442 187.255 40.8622 192.413 40.2672C193.107 40.168 192.611 42.35 190.826 51.4746C189.14 60.5992 188.247 62.7811 183.189 63.3762C182.693 63.4754 182.892 61.3926 184.578 52.268Z" fill="var(--fill-0, black)" stroke="var(--stroke-0, #FFF200)" stroke-width="1.36492" stroke-miterlimit="3.8637"/>
<path id="Vector_13" fill-rule="evenodd" clip-rule="evenodd" d="M201.533 59.3095C200.045 67.0456 203.516 68.7316 208.476 68.1365C212.344 67.7398 215.517 65.5578 217.699 61.789H217.798L217.005 66.2521L227.915 64.9628L234.758 28.6627L223.551 29.952L218.989 53.8545C218.394 56.83 217.402 58.2185 215.418 58.4168C213.435 58.6152 212.939 57.425 213.435 54.4496L217.997 30.5471L206.789 31.8365L201.533 59.3095Z" fill="var(--fill-0, black)" stroke="var(--stroke-0, #FFF200)" stroke-width="1.36492" stroke-miterlimit="3.8637"/>
<path id="Vector_14" fill-rule="evenodd" clip-rule="evenodd" d="M229.803 64.765C229.803 64.765 231.589 64.5666 235.556 64.0707C239.523 63.5748 242.002 59.5084 242.399 56.2354C242.895 52.9625 244.78 43.6395 244.78 43.6395C245.672 38.8788 248.35 36.8952 252.317 36.4985C253.21 36.3993 254.103 36.3993 255.094 36.3993L257.177 25.0927L255.392 25.2911C252.119 25.6878 248.648 28.3657 246.565 32.8288H246.466L247.557 27.0763L236.647 28.3657L229.803 64.765Z" fill="var(--fill-0, black)" stroke="var(--stroke-0, #FFF200)" stroke-width="1.36492" stroke-miterlimit="3.8637"/>
<path id="Vector_15" fill-rule="evenodd" clip-rule="evenodd" d="M243.489 97.0974C242.696 98.0892 242.398 99.1802 242.597 100.37C242.696 101.561 243.291 102.652 244.283 103.346C245.275 104.139 246.365 104.437 247.556 104.238C248.746 104.139 249.738 103.544 250.531 102.552C251.325 101.561 251.622 100.47 251.424 99.2794C251.325 98.0892 250.729 97.0974 249.738 96.304C248.746 95.5105 247.655 95.213 246.465 95.4114C245.175 95.5105 244.184 96.1056 243.489 97.0974ZM250.928 103.048C250.035 104.139 248.845 104.834 247.456 104.933C246.068 105.131 244.779 104.734 243.688 103.842C242.597 102.949 241.902 101.759 241.803 100.37C241.605 98.9819 242.002 97.6925 242.894 96.6015C243.787 95.5105 244.878 94.8163 246.365 94.7171C247.754 94.5187 249.043 94.9155 250.134 95.8081C251.225 96.7007 251.92 97.7917 252.019 99.2794C252.217 100.668 251.82 101.957 250.928 103.048ZM247.655 97.7917C247.357 97.6925 246.961 97.6925 246.465 97.6925L245.671 97.7917L245.87 99.8745L246.762 99.7753C247.159 99.6761 247.456 99.6761 247.655 99.5769C248.052 99.3786 248.151 99.081 248.151 98.5851C248.052 98.0892 247.952 97.8909 247.655 97.7917ZM246.465 96.9983C247.159 96.8991 247.655 96.8991 248.052 96.9983C248.647 97.1966 249.043 97.5933 249.043 98.2876C249.143 98.7835 248.944 99.1802 248.647 99.4778C248.448 99.6761 248.151 99.7753 247.853 99.8745C248.349 99.8745 248.647 100.073 248.845 100.271C249.143 100.569 249.242 100.866 249.242 101.065V101.461C249.242 101.561 249.242 101.759 249.341 101.858C249.341 101.957 249.44 102.056 249.44 102.156V102.255L248.547 102.354C248.547 102.354 248.547 102.354 248.547 102.255C248.547 102.255 248.547 102.255 248.547 102.156V101.957L248.448 101.561C248.349 100.866 248.151 100.47 247.754 100.37C247.556 100.271 247.159 100.271 246.663 100.271L245.87 100.37L246.167 102.552L245.175 102.652L244.481 96.9983H246.465Z" fill="var(--fill-0, black)"/>
<path id="Vector_16" fill-rule="evenodd" clip-rule="evenodd" d="M121.591 63.2775L141.031 61.0955L143.014 50.8799L123.476 53.1611L121.591 63.2775Z" fill="var(--fill-0, black)" stroke="var(--stroke-0, #FFF200)" stroke-width="1.36492" stroke-miterlimit="3.8637"/>
</g>
<defs>
<clipPath id="clip0_0_334">
<rect width="263.82" height="154.722" fill="white"/>
</clipPath>
</defs>
</svg>
