<svg preserveAspectRatio="none" width="100%" height="100%" overflow="visible" style="display: block;" viewBox="0 0 36 36" fill="none" xmlns="http://www.w3.org/2000/svg">
<g id="solar:cart-bold-duotone">
<path id="Vector" opacity="0.5" d="M15.0345 3C14.3383 3 13.6706 3.27656 13.1783 3.76884C12.6861 4.26113 12.4095 4.92881 12.4095 5.625C12.4095 6.32119 12.6861 6.98887 13.1783 7.48116C13.6706 7.97344 14.3383 8.25 15.0345 8.25H21.0345C21.7307 8.25 22.3984 7.97344 22.8907 7.48116C23.3829 6.98887 23.6595 6.32119 23.6595 5.625C23.6595 4.92881 23.3829 4.26113 22.8907 3.76884C22.3984 3.27656 21.7307 3 21.0345 3H15.0345ZM5.8305 24.3075C4.5435 19.1595 3.9 16.587 5.25 14.856C6.6 13.125 9.255 13.125 14.562 13.125H21.507C26.814 13.125 29.466 13.125 30.8175 14.856C32.169 16.587 31.5255 19.161 30.2385 24.3075C29.4195 27.582 29.0115 29.2185 27.7905 30.1725C26.5695 31.125 24.882 31.125 21.507 31.125H14.562C11.187 31.125 9.4995 31.125 8.2785 30.1725C7.0575 29.2185 6.648 27.582 5.8305 24.3075Z" fill="var(--fill-0, #404040)"/>
<path id="Vector_2" d="M23.4064 6.75296C23.5749 6.40169 23.6627 6.01715 23.6632 5.62756C23.6637 5.23796 23.577 4.85318 23.4094 4.50146C24.4339 4.50896 25.2334 4.55547 25.9459 4.83447C26.7983 5.16787 27.5395 5.73448 28.0849 6.46947C28.6354 7.21047 28.8949 8.15996 29.2504 9.46796L29.3194 9.72296L30.0889 14.1675C29.4754 13.7445 28.6849 13.4925 27.6619 13.3425L27.1219 10.212C26.6944 8.65197 26.5399 8.16146 26.2789 7.81046C25.9852 7.41463 25.586 7.10949 25.1269 6.92996C24.7969 6.80096 24.3994 6.76496 23.4064 6.75296ZM12.6619 4.50146C12.4943 4.85318 12.4076 5.23796 12.4082 5.62756C12.4087 6.01715 12.4964 6.40169 12.6649 6.75296C11.6719 6.76346 11.2744 6.80096 10.9444 6.92996C10.4854 7.10949 10.0861 7.41463 9.79242 7.81046C9.53142 8.16146 9.37692 8.65197 8.95092 10.2105L8.40942 13.344C7.38642 13.494 6.59592 13.7445 5.98242 14.166L6.75192 9.72296L6.82092 9.46796C7.17642 8.15996 7.43592 7.21046 7.98642 6.46796C8.53222 5.73409 9.27345 5.16855 10.1254 4.83596C10.8379 4.55696 11.6374 4.51047 12.6619 4.50297" fill="var(--fill-0, #404040)"/>
</g>
</svg>
