<svg preserveAspectRatio="none" width="100%" height="100%" overflow="visible" style="display: block;" viewBox="0 0 28 28" fill="none" xmlns="http://www.w3.org/2000/svg">
<g id="fluent:send-28-filled">
<path id="Vector" d="M3.79026 2.62526C2.82726 2.16526 1.76926 3.04526 2.04426 4.07626L4.06026 11.6093C4.11079 11.7986 4.21582 11.9689 4.36231 12.099C4.50881 12.2292 4.6903 12.3134 4.88426 12.3413L14.7683 13.7533C15.0543 13.7933 15.0543 14.2073 14.7683 14.2483L4.88526 15.6593C4.69131 15.6871 4.50981 15.7714 4.36331 15.9015C4.21682 16.0316 4.11179 16.2019 4.06126 16.3913L2.04426 23.9283C1.76926 24.9583 2.82726 25.8383 3.79026 25.3793L25.2883 15.1303C26.2373 14.6783 26.2373 13.3263 25.2883 12.8733L3.79026 2.62526Z" fill="var(--fill-0, #4C4C4C)"/>
</g>
</svg>
