<svg preserveAspectRatio="none" width="100%" height="100%" overflow="visible" style="display: block;" viewBox="0 0 115 67.4436" fill="none" xmlns="http://www.w3.org/2000/svg">
<g id="logo" clip-path="url(#clip0_0_549)">
<path id="Vector" d="M106.311 28.4474C107.219 27.4098 107.781 26.1128 107.953 24.9023C108.126 23.7782 108.732 20.6654 108.991 19.4981C109.207 18.4605 109.467 18.3308 110.245 18.2444C110.547 18.2011 110.72 18.2011 110.98 18.2444L113.098 18.4173L115 8.34398L111.066 8.77631C110.331 8.86278 109.64 9.07894 108.991 9.42481L105.187 9.85714L97.8802 10.7218L88.1527 11.8459L87.9798 12.6673C86.7261 12.0188 85.1264 11.8026 83.0945 12.0188C80.414 12.3214 78.4685 13.359 77.0418 14.7425C76.9986 14.6992 76.9986 14.656 76.9554 14.656C76.2204 13.8778 74.8802 13.0132 72.4591 13.2726C72.3727 13.2726 72.243 13.3158 72.1133 13.3158L72.9779 8.64661L67.5738 9.29511C64.7204 9.64097 62.8182 11.4135 62.3858 14.1804C62.2994 14.7425 61.867 17.0771 61.305 20.0169L55.3821 20.7086C55.8144 16.9474 55.2091 14.2237 53.5663 12.4511C53.2637 12.1485 52.8746 11.8026 52.399 11.5C54.7336 10.9812 56.3764 9.42481 56.6791 7.43609C56.852 6.26879 57.5005 3.15601 57.5005 3.11278L58.149 -2.58526e-06L35.9272 2.55074L30.2637 27.2801C29.8746 29.312 29.8746 31.0846 30.2204 32.5977C30.134 32.5545 30.0475 32.5113 29.961 32.468C29.9178 32.4248 29.8313 32.4248 29.7881 32.3816C29.7881 32.3816 29.7449 32.3383 29.7016 32.2951L29.6152 32.2086C28.4911 30.6955 27.7994 29.7444 27.6264 29.3553C27.6264 29.312 27.5832 29.2688 27.5832 29.1823C27.2373 28.188 26.3294 25.5075 21.9197 25.5075H21.79C18.9798 25.5507 17.5531 25.8966 16.7749 26.0695C16.6452 26.1128 16.5588 26.1128 16.4723 26.156C16.4291 26.156 16.3426 26.156 16.2994 26.156C16.3426 25.421 16.2994 24.6429 16.1697 23.8214L16.1264 23.562C15.9535 22.0056 14.4403 19.844 12.149 19.844C11.9328 19.844 11.7167 19.844 11.4573 19.8872C7.82568 20.5357 7.39335 22.438 7.39335 23.2162C7.35012 24.297 7.95538 26.5451 7.99862 26.8045C8.04185 26.891 8.04185 27.0207 8.08508 27.1504C8.08508 27.1936 8.12831 27.2801 8.12831 27.3233C8.08508 27.3233 7.99862 27.3665 7.91215 27.3665C7.52305 27.4962 6.78809 27.6692 6.18283 28.188C6.00989 27.6692 5.7505 27.2368 5.57756 26.9774C5.27493 26.5451 4.8426 26.2425 4.3238 26.156C4.23735 26.156 3.67532 26.0263 3.02682 26.0263C0.99487 26.0263 0.476072 27.2368 0.346374 27.7556C0.216675 28.2744 0.259906 28.75 0.303139 29.1823C0.303139 29.3553 0.346372 29.6579 0.303139 29.7876C0.000507066 30.8252 0.000507046 33.1598 0.0869734 34.1974C0.346372 36.5752 1.5569 38.0883 3.19975 38.0883C3.89148 38.0883 4.53997 37.8289 5.14523 37.3101C6.05313 36.5752 6.91779 35.9699 7.47982 35.5808C7.73922 36.1861 7.95538 36.9643 8.12831 37.6992C8.38771 38.6936 8.60388 39.515 8.99298 40.0771C9.07944 40.2068 9.20914 40.4229 9.38207 40.6391C9.33884 40.7256 9.25237 40.812 9.20914 40.8985C8.86328 41.4173 8.56065 42.3252 8.90651 43.4925C9.42531 45.265 10.7223 50.0639 11.0682 51.5771C10.9385 51.6635 10.8088 51.7932 10.7223 51.8797C10.6791 51.8797 10.6358 51.8797 10.5926 51.8797C10.2467 51.9229 8.43095 52.312 7.86892 53.9116C7.60952 54.6466 7.56628 55.8139 8.82004 57.1974C8.94974 57.3271 9.07944 57.4568 9.25237 57.5432C9.29561 57.5432 10.0738 58.0188 11.2411 58.4944C11.587 58.6241 11.9328 58.797 12.2355 58.9267C12.9272 59.2293 13.5325 59.532 14.2242 59.6617C14.4836 59.7049 14.743 59.7481 15.0024 59.7481C15.9103 59.7481 16.4291 59.359 16.7317 59.0132C17.4667 58.1917 17.337 57.1541 17.2937 56.8515C17.2505 56.5921 17.2505 56.2895 17.2505 55.9436C17.2505 55.5977 17.2505 55.2519 17.2073 54.906C18.2449 56.1165 19.3689 57.1541 19.9742 57.7594L20.1039 57.8891C20.2768 58.0188 20.493 58.235 20.7091 58.4511L19.758 63.5526L24.5137 62.9906C24.946 63.5094 25.4215 63.7256 25.8539 63.8553C26.07 64.4605 26.3294 65.2387 26.4159 65.4981C26.805 66.5789 28.0588 67.141 29.0531 67.141C29.7016 67.141 30.3069 66.8816 30.7392 66.4492C31.1715 66.0169 31.4309 65.4117 31.3877 64.7632C31.3877 64.0282 31.2148 63.0771 31.0418 62.2124L31.993 62.0827C32.2091 62.0395 32.3821 61.9962 32.5982 61.953V61.9962L41.5043 60.9586L47.4272 60.2669C47.6001 60.2237 47.8163 60.1804 47.9892 60.1804V60.2237L60.2674 58.797C60.4836 58.7538 60.6565 58.7105 60.8727 58.6673V58.7105L79.5926 56.5489L79.7655 55.7274C80.6302 56.203 81.6678 56.5056 82.8783 56.5056C83.2674 56.5056 83.6565 56.4624 84.0888 56.4192C85.1264 56.2895 86.0776 56.0733 86.899 55.6842L93.5137 54.906L99.3933 54.2143C101.901 53.9117 103.63 52.312 104.149 49.8045C104.322 48.9398 104.668 47.2105 104.927 45.8271C105.057 45.9568 105.187 46.0865 105.36 46.2162C105.965 46.735 106.743 46.9944 107.521 46.9944C107.651 46.9944 107.781 46.9944 107.953 46.9511C108.905 46.8214 109.683 46.3891 110.288 45.6541C110.893 44.9192 111.11 44.0113 111.023 43.0601C110.893 42.109 110.461 41.3308 109.726 40.7256C109.121 40.25 108.386 39.9906 107.608 39.9906L114.611 27.4098L106.311 28.4474ZM86.5531 30.609C86.5099 30.609 86.4667 30.6523 86.3802 30.6955C86.4234 30.6523 86.4667 30.609 86.5099 30.5658L86.5531 30.609ZM21.5306 48.032C21.4873 47.8158 21.4441 47.3835 21.4009 47.0376C21.4441 46.9944 21.4873 46.9511 21.5306 46.9079C22.4385 46 23.5625 44.8759 23.1734 43.406C23.1302 43.2763 23.087 43.1034 23.0437 42.8872C22.6546 41.2011 22.352 39.9474 21.6603 39.2124C21.5306 39.0827 21.4441 38.953 21.3144 38.8665C20.9685 38.5207 20.7524 38.3045 20.5794 38.0019C20.5362 37.8722 20.32 37.2669 20.32 34.8891C20.32 34.1541 20.6659 33.5056 20.9685 32.8571C21.0982 32.5977 21.2279 32.3383 21.3576 32.0789C21.4441 31.906 21.9197 31.5169 22.1358 31.4304L22.2655 31.3872C22.3088 31.3872 22.3088 31.3872 22.352 31.344C22.5682 31.6034 22.8276 31.8628 23.1302 32.1654C23.5193 32.5977 24.211 33.2895 24.384 33.5056C24.6001 33.8515 24.8595 34.1541 25.1189 34.4568C25.1621 34.5 25.2486 34.5865 25.3351 34.6729C25.3351 35.1485 25.3351 35.6673 25.3351 35.7538C25.3351 36.3158 25.5945 36.8346 26.0268 37.1804C26.3294 37.3966 26.6321 37.5695 27.0212 37.5695L24.8595 37.8289L22.5682 49.891C22.0926 49.1128 21.6603 48.2913 21.5306 48.032Z" fill="var(--fill-0, white)"/>
<path id="Vector_2" fill-rule="evenodd" clip-rule="evenodd" d="M51.1016 57.4999C51.1016 57.4999 58.7106 56.6353 60.2237 56.4623C61.7369 56.2894 63.0339 55.2518 63.2501 54.0845C63.423 52.874 63.6824 51.7499 63.6824 51.7499L56.9813 52.5281L57.7595 48.3777L63.8121 47.686L64.6335 43.4492L58.5809 44.1409L59.2726 40.5958L65.7143 39.8608L66.5358 35.451L55.0358 36.7913L51.1016 57.4999Z" fill="var(--fill-0, black)" stroke="var(--stroke-0, #FFF200)" stroke-width="0.594974" stroke-miterlimit="3.8637"/>
<path id="Vector_3" fill-rule="evenodd" clip-rule="evenodd" d="M63.9414 56.0301L68.9997 55.4681L70.5993 47.1241L71.9395 46.9512C73.1501 46.8215 73.4959 47.3835 73.0204 49.7181L72.761 51.1016C72.588 51.9662 72.2422 53.9549 72.5016 54.9925L77.8625 54.3873L77.9057 54.0846C77.6031 53.9549 77.5598 53.7388 77.4734 53.5226C77.3004 53.1335 77.5598 51.7501 77.776 50.6692L78.1219 48.8967C78.6407 46.1298 78.2083 44.5734 75.8305 44.6166V44.5734C78.2083 43.9249 79.5486 42.0226 80.0674 39.2557C80.6726 36.0565 79.635 33.8948 75.7873 34.3271L67.8756 35.235L63.9414 56.0301ZM72.1989 38.5207L73.1933 38.391C74.7065 38.2181 75.182 38.8666 74.8794 40.5527C74.62 42.0226 73.7121 43.1034 72.2854 43.2764L71.291 43.4061L72.1989 38.5207Z" fill="var(--fill-0, black)" stroke="var(--stroke-0, #FFF200)" stroke-width="0.594974" stroke-miterlimit="3.8637"/>
<path id="Vector_4" fill-rule="evenodd" clip-rule="evenodd" d="M86.7691 45.9135L88.5416 45.6974C87.8067 49.3289 87.0717 50.1504 85.9909 50.2801C84.4345 50.453 84.5642 48.9831 85.645 43.3195C86.7258 37.6992 87.1582 36.1429 88.801 35.9699C89.4063 35.8835 89.7089 36.1861 89.7954 36.7481C89.8819 37.2669 89.7954 38.0883 89.6225 39.1259L94.5078 38.5639C95.4589 33.5056 93.2973 31.8628 89.7089 32.2951C83.7428 32.9868 81.754 36.9643 80.4138 43.968C79.1168 50.8421 78.8142 54.7331 83.9589 54.1278C85.6882 53.9117 87.5473 53.2632 88.5849 51.4041H88.6281L88.3687 53.2199L91.7841 52.8308L93.9025 41.5038L87.3743 42.2387L86.7691 45.9135Z" fill="var(--fill-0, black)" stroke="var(--stroke-0, #FFF200)" stroke-width="0.594974" stroke-miterlimit="3.8637"/>
<path id="Vector_5" fill-rule="evenodd" clip-rule="evenodd" d="M96.539 52.2688C96.539 52.2688 97.7495 52.1391 99.2627 51.9662C100.776 51.7932 101.727 50.9286 102.03 49.3722C102.332 47.8158 103.154 43.4925 103.154 43.4925L110.503 30.3064L104.969 30.9549L101.684 38.4342H101.641L101.122 31.3872L95.5879 32.0357L98.1386 44.0978L96.539 52.2688Z" fill="var(--fill-0, black)" stroke="var(--stroke-0, #FFF200)" stroke-width="0.594974" stroke-miterlimit="3.8637"/>
<path id="Vector_6" d="M29.2703 65.4117C28.8812 65.4117 28.3191 65.1523 28.1894 64.8496C28.0597 64.4605 27.4977 62.8177 27.368 62.4286C27.368 62.3853 27.1518 62.3421 27.0221 62.2989C26.7195 62.2556 26.3304 62.2124 26.0278 61.8665C25.7684 61.5639 25.6819 61.218 25.5954 60.8722C25.509 60.5695 25.4225 60.2669 25.2496 60.0075C24.9469 59.6184 23.6932 58.4944 22.6988 57.6297C22.2233 57.1974 21.7909 56.8515 21.5315 56.5921L21.4018 56.4624C20.5372 55.641 18.7214 53.9549 17.5109 52.1391C16.6462 50.7989 15.5654 50.1504 15.0898 49.8477C15.1763 50.7556 15.4357 53.1335 15.6518 53.8684C15.868 54.4737 15.868 55.2086 15.868 55.9004C15.868 56.2895 15.868 56.6786 15.9112 56.9812C15.9545 57.4135 15.9112 57.7162 15.7815 57.8891C15.6518 58.0188 15.5221 58.062 15.2627 58.062C15.133 58.062 14.9601 58.0188 14.7439 58.0188C14.3116 57.9323 13.7928 57.7162 13.1875 57.4135C12.8417 57.2406 12.4958 57.0677 12.1067 56.938C11.0259 56.5056 10.3342 56.0733 10.2909 56.0733L10.2477 56.0301C9.68567 55.4248 9.4695 54.8628 9.64243 54.4304C9.90183 53.6955 11.0259 53.5226 11.0691 53.4793C11.0691 53.4793 11.0691 53.4793 11.1124 53.4793H11.1556L12.2364 53.7387L12.15 53.047C12.15 52.9605 12.1932 52.8741 12.2797 52.8308L12.8849 52.6579C12.9714 52.4417 13.1011 51.9662 12.9714 51.4906C12.7984 50.7989 11.1988 44.7895 10.68 42.9304C10.5503 42.4549 10.5936 42.0226 10.8097 41.6767C11.0691 41.2444 11.5015 41.0714 11.8041 40.9417C11.5447 40.5094 10.8962 39.4718 10.5503 38.9962C10.3342 38.6504 10.1612 38.0019 9.94507 37.1804C9.7289 36.3158 9.4695 35.3214 9.12364 34.5865C8.77777 33.938 8.38867 33.5921 7.91311 33.5921C7.69695 33.5921 7.48078 33.6786 7.35108 33.765C7.26462 33.8083 7.17815 33.8947 7.00522 33.9812C6.44319 34.3703 5.40559 35.0188 4.32477 35.9267C4.02214 36.1861 3.71951 36.3158 3.46011 36.3158C2.33605 36.3158 2.03342 34.2838 1.99018 33.8947C1.86048 32.9436 1.94695 30.8684 2.11988 30.0902C2.20634 29.7444 2.16312 29.312 2.16312 28.9229C2.11988 28.5771 2.11988 28.2744 2.16312 28.0583C2.24958 27.6259 2.98454 27.6259 3.24394 27.6259C3.71951 27.6259 4.2383 27.7124 4.2383 27.7124C4.28154 27.7124 4.32477 27.7556 4.368 27.7989C4.4977 28.015 5.10296 29.0094 4.71386 29.5282C4.45446 29.9173 3.93567 30.0038 3.58981 30.0038L3.97891 32.7707C4.45446 32.5545 5.23266 32.1654 5.44883 31.9492L5.57852 31.8195C5.96762 31.4304 6.74582 30.7387 6.96198 30.0038C7.17815 29.2256 7.91311 29.0094 8.47514 28.8797C8.64807 28.8365 8.86424 28.7932 8.99394 28.7068C9.2101 28.6203 9.55597 28.5771 10.0748 28.5771C10.3774 28.5771 10.6368 28.5771 10.8962 28.6203C10.68 28.4474 10.4639 28.2312 10.2909 28.1015C9.9883 27.7989 9.90183 27.2368 9.77213 26.718C9.7289 26.5883 9.7289 26.4586 9.68567 26.3289C9.68567 26.2857 9.12364 24.0808 9.12364 23.2162C9.12364 22.3947 10.118 21.7895 11.8041 21.4868C11.9338 21.4436 12.0635 21.4436 12.1932 21.4436C13.6631 21.4436 14.4845 23.0432 14.5278 23.6917L14.571 23.9511C14.6575 24.7726 14.8304 26.1128 14.4845 26.718C14.2684 27.1071 14.5278 27.5827 14.6575 27.7556C14.9169 27.7556 15.5221 27.7124 15.9977 27.7124C16.2139 27.7124 16.3868 27.7124 16.5165 27.7124C16.6894 27.7124 16.9056 27.6692 17.165 27.5827C17.9432 27.4098 19.2402 27.1071 21.8342 27.0639H21.9639C25.2063 27.0639 25.7684 28.7068 26.071 29.6147C26.1142 29.7444 26.1575 29.8741 26.2007 30.0038C26.5466 30.6955 27.8003 32.3816 28.3624 33.1165L28.4488 33.203C28.7947 33.6786 29.0541 33.765 29.4432 33.8947C29.5729 33.938 29.7458 34.0244 29.9187 34.1109C30.6105 34.4568 30.3511 35.3647 30.1781 35.8835C30.1781 35.9699 30.1349 36.0132 30.1349 36.0564C30.0052 36.5752 29.5297 36.7049 29.1838 36.8346C29.0973 36.8778 29.0541 36.8778 28.9676 36.921C28.9244 36.9643 28.8379 36.9643 28.7947 36.9643C28.665 36.9643 28.5785 36.921 28.4921 36.8346C28.2759 36.5752 28.2759 36.0996 28.3191 35.797C28.3191 35.6673 28.2759 35.5376 28.2327 35.4511C28.1894 35.4079 28.1462 35.3647 28.103 35.3647C28.0597 35.3647 28.0165 35.4079 27.9733 35.4511C27.5842 35.797 27.2815 35.8835 27.2815 35.8835H27.2383C27.1951 35.8835 27.1518 35.8835 27.1086 35.8402C27.0654 35.797 27.0221 35.7538 27.0221 35.7105C27.0221 35.6673 27.0221 34.7162 27.0221 34.2406C27.0221 34.0244 26.633 33.5921 26.3736 33.2895C26.1575 33.0301 25.9413 32.8139 25.8116 32.641C25.6819 32.3816 24.9037 31.6034 24.3417 30.9981C23.9094 30.5658 23.477 30.1335 23.2609 29.8741C23.0879 29.7011 22.915 29.6147 22.6556 29.6147C22.353 29.6147 21.9639 29.7444 21.7477 29.8308L21.618 29.8741C21.1857 30.0038 20.1913 30.6955 19.8887 31.4304C19.8022 31.6466 19.6725 31.8628 19.586 32.0789C19.1969 32.8139 18.7214 33.7218 18.7214 34.8891C18.7214 36.1861 18.7646 38.0019 19.1537 38.7368C19.4563 39.2989 19.8022 39.6447 20.1913 40.0338C20.2778 40.1203 20.4075 40.25 20.5372 40.3797C20.9695 40.812 21.2289 41.9793 21.5315 43.2763C21.5748 43.5357 21.618 43.7086 21.6612 43.8816C21.7909 44.4436 21.0992 45.1353 20.4507 45.7838C20.1913 46.0432 19.9319 46.3026 19.8887 46.4323C19.759 46.7782 19.9319 48.1617 20.0616 48.594C20.1913 49.0263 21.4451 51.188 22.0503 52.0959C22.6988 53.0902 23.4338 53.9117 24.1688 54.4304C24.8172 54.906 25.336 55.8571 25.6819 56.5921C25.8116 56.8515 25.9413 57.0677 26.0278 57.1974C26.2872 57.5865 26.7627 57.7594 27.4977 57.7594C27.7139 57.7594 27.93 57.7594 28.1462 57.7162C28.2327 57.7162 28.3191 57.7162 28.4056 57.7162C28.7947 57.7162 29.0541 57.8026 29.2703 58.0188C29.5297 58.2782 29.4864 58.6241 29.4864 58.6673C29.4864 58.6673 29.5297 60.6128 29.6161 61.3477C29.6593 61.6071 29.7026 62.0395 29.789 62.4718C29.9187 63.25 30.0917 64.1579 30.0917 64.7199C30.0917 64.9361 30.0484 65.109 29.9187 65.2387C29.7026 65.3252 29.4864 65.4117 29.2703 65.4117Z" fill="var(--fill-0, black)"/>
<path id="Vector_7" d="M12.1919 21.6165C13.5321 21.6165 14.2671 23.0864 14.3536 23.6917C14.44 24.3834 14.6995 25.9831 14.3104 26.6316C13.9213 27.28 14.5265 27.9718 14.5265 27.9718C14.5265 27.9718 15.3479 27.9285 15.9964 27.9285C16.2126 27.9285 16.3855 27.9285 16.5152 27.9285H16.5584C17.1205 27.9285 18.2446 27.3665 21.8762 27.3233C21.9194 27.3233 21.9626 27.3233 22.0058 27.3233C25.6374 27.3233 25.7239 29.4417 26.0697 30.1334C26.4156 30.8684 27.799 32.641 28.3178 33.3759C28.8366 34.1109 29.2257 34.0244 29.831 34.3703C30.4363 34.6729 30.0904 35.624 29.9175 36.0996C29.7878 36.6184 29.2257 36.6616 28.8799 36.7913C28.8366 36.7913 28.7935 36.8346 28.7935 36.8346C28.5341 36.8346 28.4908 36.3158 28.4908 35.8834C28.534 35.5376 28.3178 35.2349 28.0584 35.2349C27.972 35.2349 27.8855 35.2782 27.7558 35.3646C27.4099 35.7105 27.1506 35.7537 27.1506 35.7537C27.1506 35.7537 27.1506 34.7594 27.1506 34.2838C27.1506 33.8082 26.1994 33.0301 25.94 32.5977C25.6806 32.1222 23.9081 30.3928 23.346 29.7876C23.1299 29.5282 22.8705 29.4417 22.5678 29.4417C22.1355 29.4417 21.7032 29.6146 21.4438 29.7011C20.9683 29.874 19.9306 30.5658 19.5848 31.3872C19.2389 32.2086 18.3742 33.3759 18.3742 34.9323C18.3742 36.4887 18.4607 38.1316 18.8498 38.8665C19.2389 39.6015 19.7145 39.9906 20.2333 40.5526C20.7521 41.0714 21.0979 43.2763 21.3141 43.9248C21.487 44.6165 19.6712 45.9567 19.5415 46.3458C19.4118 46.7349 19.5416 48.2049 19.7145 48.6372C19.8442 49.0695 21.1412 51.3176 21.7032 52.1823C22.2652 53.0902 23.0434 53.9549 23.8648 54.5601C24.6863 55.1654 25.3348 56.7218 25.6806 57.2838C25.9833 57.7161 26.5021 57.9323 27.3235 57.9323C27.5397 57.9323 27.7558 57.9323 28.0152 57.8891C28.1017 57.8891 28.1881 57.8891 28.2746 57.8891C29.2257 57.8891 29.1393 58.624 29.1393 58.624C29.1393 58.624 29.1825 60.5695 29.269 61.3477C29.3554 62.1259 29.7445 63.812 29.7445 64.7199C29.7445 65.109 29.5284 65.2387 29.2258 65.2387C28.8367 65.2387 28.4043 65.0225 28.3178 64.8064C28.1881 64.4173 27.6262 62.7312 27.4965 62.3853C27.3668 61.9962 26.5453 62.2988 26.113 61.78C25.6806 61.2613 25.7671 60.5695 25.3348 59.921C24.9025 59.3158 22.3949 57.2406 21.5735 56.4624C20.7521 55.6842 18.8498 53.9549 17.596 52.0526C16.3423 50.1504 14.7859 49.5451 14.7859 49.5451C14.7859 49.5451 15.0886 53.0037 15.3912 53.9549C15.6938 54.906 15.5209 56.0733 15.6506 57.0244C15.737 57.7161 15.5641 57.8891 15.2182 57.8891C15.0885 57.8891 14.9156 57.8458 14.7427 57.8458C14.0942 57.7594 13.2727 57.2406 12.1919 56.765C11.1111 56.3327 10.4194 55.9004 10.4194 55.9004C8.69007 54.0413 11.1111 53.6955 11.1111 53.6955L12.4513 54.0413L12.3216 53.0902L13.0566 52.9173C13.0566 52.9173 13.3592 52.2255 13.1863 51.5338C13.0133 50.8421 11.4569 44.9191 10.8949 42.9737C10.4626 41.4605 12.1054 41.2011 12.1054 41.2011C12.1054 41.2011 11.1543 39.6447 10.722 39.0394C10.2896 38.4342 10.0303 36.0996 9.29529 34.6297C8.86296 33.765 8.30093 33.5056 7.8686 33.5056C7.56596 33.5056 7.3498 33.5921 7.2201 33.7218C6.87424 33.9812 5.53401 34.7594 4.1938 35.9267C3.9344 36.1428 3.67501 36.2725 3.45884 36.2725C2.63741 36.2725 2.29155 34.8026 2.16185 34.0244C2.03215 33.0733 2.11862 31.0413 2.29155 30.3064C2.46448 29.5714 2.20508 28.75 2.33478 28.2744C2.37801 28.0582 2.81034 27.9718 3.19944 27.9718C3.675 27.9718 4.1938 28.0582 4.1938 28.0582C4.1938 28.0582 4.88556 29.1391 4.58292 29.5714C4.28027 29.9605 3.58854 30.0037 3.41561 30.0037H3.37238L3.84794 33.2462C3.84794 33.2462 5.27461 32.5977 5.62048 32.2519C5.96634 31.9492 6.91751 31.1278 7.17691 30.2199C7.43631 29.312 8.47386 29.312 9.07912 29.0526C9.29529 28.9661 9.68439 28.9229 10.1167 28.9229C10.8517 28.9229 11.6299 29.0094 11.6299 29.0094C11.6299 29.0094 10.8084 28.4473 10.5058 28.0582C10.2032 27.7124 10.0735 26.9342 9.94378 26.3722C9.81409 25.8101 9.38175 23.9943 9.38175 23.3026C9.38175 22.6109 10.3762 22.0056 11.9325 21.7462C11.9758 21.6165 12.1054 21.6165 12.1919 21.6165ZM12.1919 21.2274C12.0622 21.2274 11.9325 21.2274 11.7596 21.2707C9.94379 21.6165 8.90623 22.3082 8.90623 23.2161C8.863 24.0808 9.46822 26.3722 9.46822 26.3722C9.51145 26.5019 9.5115 26.6316 9.55473 26.7613C9.68443 27.3233 9.81409 27.8853 10.1167 28.2312C10.1599 28.2744 10.2032 28.3609 10.2896 28.4041C10.2032 28.4041 10.1167 28.4041 10.0303 28.4041C9.46822 28.4041 9.07912 28.4473 8.86296 28.577C8.73326 28.6203 8.56033 28.7067 8.38739 28.75C7.82536 28.9229 7.00398 29.1391 6.74458 30.0037C6.52841 30.6955 5.79341 31.3872 5.40431 31.7331C5.36108 31.7763 5.31784 31.8195 5.27461 31.8628C5.14491 31.9925 4.58288 32.2951 4.10734 32.5545L3.76147 30.2631C4.10734 30.2199 4.53969 30.047 4.79909 29.7011C5.23142 29.0958 4.62611 28.015 4.45318 27.7124C4.40995 27.6259 4.28027 27.5394 4.1938 27.5394C4.1938 27.5394 3.67501 27.453 3.15621 27.453C2.89681 27.453 2.03215 27.453 1.90245 28.0582C1.81598 28.3609 1.85921 28.6635 1.90245 29.0094C1.94568 29.3985 1.94569 29.7443 1.85922 30.0902C1.64305 30.8684 1.59982 32.9436 1.68628 33.9379C1.72952 34.3703 2.03215 36.5319 3.37238 36.5319C3.67501 36.5319 4.02087 36.4022 4.36676 36.0996C5.44759 35.2349 6.48514 34.5432 7.04717 34.1541C7.2201 34.0676 7.30661 33.9812 7.39308 33.9379C7.47954 33.8947 7.65247 33.8082 7.82541 33.8082C8.3442 33.8082 8.69003 34.2838 8.86296 34.7161C9.20882 35.4511 9.46822 36.4022 9.68439 37.2669C9.90055 38.1316 10.0735 38.8233 10.3329 39.1691C10.6355 39.5582 11.1543 40.3797 11.4569 40.8985C11.1543 41.0282 10.8084 41.2443 10.5923 41.5902C10.3329 41.9793 10.2896 42.4549 10.4626 43.0169C10.9814 44.8759 12.6242 50.8853 12.7539 51.577C12.8404 51.9229 12.7539 52.312 12.7107 52.5282L12.1919 52.6579C12.019 52.7011 11.8893 52.874 11.8893 53.0902L11.9325 53.4793L11.1543 53.2631C11.1111 53.2631 11.1111 53.2631 11.0679 53.2631H11.0246C10.8949 53.2631 9.72762 53.4793 9.46822 54.344C9.29529 54.8628 9.51145 55.5113 10.1167 56.1597C10.1599 56.203 10.16 56.203 10.2032 56.2462C10.2465 56.2462 10.9381 56.6785 12.0622 57.1109C12.4513 57.2838 12.7972 57.4135 13.143 57.5864C13.7483 57.8891 14.2671 58.1052 14.7427 58.1917C14.9589 58.2349 15.1318 58.2349 15.3047 58.2349C15.3912 58.2349 15.737 58.2349 15.9532 57.9755C16.2126 57.7161 16.1693 57.2838 16.1693 56.9379C16.1261 56.5921 16.1261 56.2462 16.1261 55.8571C16.1261 55.1654 16.1261 54.4304 15.91 53.7819C15.737 53.1767 15.5209 51.3609 15.3912 50.1936C15.91 50.5394 16.7314 51.1447 17.4231 52.2255C18.6336 54.0846 20.4494 55.7706 21.3141 56.5921L21.4438 56.7218C21.7032 56.9812 22.1355 57.327 22.6111 57.7594C23.5622 58.5808 24.8592 59.7481 25.1618 60.1372C25.3348 60.3966 25.4212 60.656 25.5077 60.9586C25.5942 61.3045 25.7239 61.6936 25.9833 61.9962C26.3292 62.3853 26.7615 62.4718 27.1073 62.515C27.1938 62.515 27.2803 62.5582 27.3235 62.5582C27.4964 63.0338 28.0153 64.5902 28.145 64.9361C28.3179 65.3684 28.9231 65.6278 29.3987 65.6278C29.6581 65.6278 29.9175 65.5413 30.0472 65.3684C30.1769 65.2387 30.3066 65.0658 30.3066 64.7199C30.3066 64.1146 30.1336 63.2067 30.0039 62.4285C29.9175 61.9962 29.8742 61.6071 29.831 61.3477C29.7445 60.656 29.7013 58.8402 29.7013 58.6673C29.7013 58.5376 29.7013 58.1917 29.4419 57.8891C29.2258 57.6297 28.8799 57.5 28.4475 57.5C28.3611 57.5 28.2747 57.5 28.145 57.5C27.9288 57.5432 27.7126 57.5432 27.4965 57.5432C26.848 57.5432 26.4156 57.3703 26.1995 57.0676C26.113 56.9379 25.9833 56.7218 25.8536 56.4624C25.4645 55.7274 24.9457 54.7331 24.254 54.2575C23.5623 53.7387 22.8272 52.9605 22.1787 51.9661C21.5735 51.015 20.3197 48.8534 20.2333 48.5075C20.0603 48.0319 19.9739 46.7349 20.0603 46.4755C20.1036 46.3891 20.4062 46.1297 20.5792 45.9135C21.2709 45.2218 22.0058 44.4868 21.8329 43.7951C21.7896 43.6654 21.7464 43.4492 21.7032 43.2331C21.4006 41.9361 21.1412 40.7255 20.6656 40.25C20.5359 40.1203 20.4494 40.0338 20.3197 39.9041C19.9306 39.515 19.5848 39.1691 19.3254 38.6504C18.893 37.8289 18.893 35.624 18.893 34.8891C18.893 33.8082 19.3686 32.9004 19.7145 32.1654C19.8442 31.9492 19.9306 31.6898 20.0603 31.5169C20.363 30.8252 21.2709 30.1767 21.66 30.047L21.7897 30.0037C22.049 29.9173 22.3517 29.7876 22.6543 29.7876C22.8705 29.7876 23.0002 29.8308 23.1299 30.0037C23.346 30.2631 23.7784 30.6955 24.2107 31.171C24.7727 31.7331 25.5509 32.5545 25.6806 32.7707C25.8103 32.9868 26.0265 33.203 26.2427 33.4624C26.4588 33.6785 26.848 34.1109 26.848 34.2406C26.8047 34.7161 26.848 35.7105 26.848 35.7105C26.848 35.8402 26.8912 35.9267 26.9776 36.0131C27.0641 36.0564 27.1506 36.0996 27.237 36.0996C27.2803 36.0996 27.2803 36.0996 27.3235 36.0996C27.41 36.0996 27.7126 36.0131 28.145 35.624C28.1882 35.6673 28.1881 35.7105 28.1881 35.8402C28.1449 36.2293 28.1881 36.7481 28.4475 37.0507C28.5772 37.1804 28.7069 37.2669 28.8799 37.2669C28.9663 37.2669 29.0528 37.2669 29.1393 37.2237C29.1825 37.1804 29.269 37.1804 29.3554 37.1372C29.7013 37.0075 30.2633 36.8346 30.4363 36.2293C30.4363 36.1861 30.4795 36.0996 30.4795 36.0564C30.6524 35.4943 30.9551 34.4567 30.1336 34.0244C29.9607 33.9379 29.7878 33.8515 29.6148 33.8082C29.269 33.6785 29.0528 33.5921 28.7069 33.1597L28.6205 33.0733C28.0584 32.3383 26.8047 30.6522 26.5021 30.0037C26.4588 29.9173 26.4156 29.7876 26.3724 29.6579C26.0697 28.7067 25.4645 26.9774 22.0923 26.9774H21.9626C19.3254 27.0207 17.9851 27.3233 17.2502 27.4962C16.9908 27.5394 16.7746 27.5827 16.6449 27.5827H16.6017C16.472 27.5827 16.2991 27.5827 16.0397 27.5827C15.6074 27.5827 15.0885 27.5827 14.7859 27.6259C14.6994 27.453 14.5697 27.1503 14.6994 26.9342C15.0885 26.3289 14.9588 25.1616 14.8291 24.0376C14.8291 23.9511 14.7859 23.8646 14.7859 23.7782C14.6562 22.827 13.7915 21.2274 12.1919 21.2274Z" fill="var(--fill-0, #FFF200)"/>
<path id="Vector_8" fill-rule="evenodd" clip-rule="evenodd" d="M22.8711 60.7425C22.8711 60.7425 30.4801 59.8778 31.9933 59.7049C33.5064 59.532 34.8034 58.4944 35.0196 57.3271C35.1925 56.1166 35.4519 54.9925 35.4519 54.9925L28.7508 55.7707L29.529 51.6203L35.5816 50.9286L36.403 46.6917L30.3504 47.3835L31.0421 43.8384L37.4839 43.1034L38.3053 38.6504L26.8053 39.9906L22.8711 60.7425Z" fill="var(--fill-0, black)" stroke="var(--stroke-0, #FFF200)" stroke-width="0.594974" stroke-miterlimit="3.8637"/>
<path id="Vector_9" fill-rule="evenodd" clip-rule="evenodd" d="M35.7091 59.2726L40.4216 58.7106L42.8426 45.8703H42.8858L43.8369 58.3215C43.8369 58.3215 46.1283 58.0621 47.382 57.9324C48.6358 57.8027 49.5437 56.9812 49.8031 55.4248C50.0625 53.8685 53.305 36.8779 53.305 36.8779L48.5926 37.4399L46.1715 50.2801H46.1283L45.3068 37.829L39.6434 38.4775L35.7091 59.2726Z" fill="var(--fill-0, black)" stroke="var(--stroke-0, #FFF200)" stroke-width="0.594974" stroke-miterlimit="3.8637"/>
<path id="Vector_10" fill-rule="evenodd" clip-rule="evenodd" d="M33.8516 22.5246L40.985 21.7031C41.3309 19.8009 42.3685 18.893 43.6655 18.7201C45.0922 18.5471 45.6542 19.7144 45.0057 23.3028C43.8384 29.4851 42.9738 30.3065 41.4606 30.4795C40.1204 30.6524 39.4719 29.8742 40.0339 26.8046L40.2501 25.7238L32.9004 26.5885L32.6843 27.6261C31.6034 33.4625 33.8083 36.5321 40.7689 35.7107C48.205 34.846 51.4042 30.393 52.9606 22.049C54.2576 15.1749 52.2256 12.1486 47.3835 12.7107C45.1354 12.9701 43.1034 14.0941 41.3741 15.6937L42.7144 10.2464C42.7144 10.2464 49.7613 9.42494 51.3177 9.25201C52.9174 9.07908 54.2576 8.25765 54.4738 7.00389C54.6467 5.75013 55.2952 2.59412 55.2952 2.59412L37.8722 4.58284L33.8516 22.5246Z" fill="var(--fill-0, black)" stroke="var(--stroke-0, #FFF200)" stroke-width="0.594974" stroke-miterlimit="3.8637"/>
<path id="Vector_11" fill-rule="evenodd" clip-rule="evenodd" d="M61.3477 32.7274L66.233 32.1654L68.2217 21.7462C68.4811 20.4492 68.9134 19.8439 69.7781 19.7575C70.6428 19.671 70.8589 20.1898 70.6428 21.4868L68.6541 31.906C68.6541 31.906 69.9943 31.733 71.3345 31.6033C72.6747 31.4304 73.7123 30.3496 74.0582 28.7067C74.4041 27.0638 75.7875 19.4548 75.7875 19.4548C76.3928 16.1691 74.7931 15.3909 72.7612 15.6071C71.5507 15.7368 70.0807 16.3853 68.9567 18.1578H68.9134L70.2104 11.3702C70.2104 11.3702 69.8213 11.4135 67.9623 11.6296C66.1033 11.8458 65.0657 12.8834 64.8063 14.5695C64.5037 16.1691 61.3477 32.7274 61.3477 32.7274Z" fill="var(--fill-0, black)" stroke="var(--stroke-0, #FFF200)" stroke-width="0.594974" stroke-miterlimit="3.8637"/>
<path id="Vector_12" fill-rule="evenodd" clip-rule="evenodd" d="M88.0667 21.9192C88.9314 17.3797 89.1476 13.6617 83.3976 14.3102C77.8637 14.9587 76.3506 19.1955 75.5724 23.3459C74.7077 27.8854 74.5348 31.6034 80.2416 30.9549C85.7754 30.3064 87.2885 26.0696 88.0667 21.9192ZM80.4577 22.7838C81.1927 18.7632 81.625 17.812 83.8731 17.5526C84.1758 17.5094 83.9596 18.4605 83.1814 22.438C82.4464 26.4154 82.0573 27.3666 79.8525 27.626C79.6363 27.6692 79.7228 26.7613 80.4577 22.7838Z" fill="var(--fill-0, black)" stroke="var(--stroke-0, #FFF200)" stroke-width="0.594974" stroke-miterlimit="3.8637"/>
<path id="Vector_13" fill-rule="evenodd" clip-rule="evenodd" d="M87.8487 25.8534C87.2002 29.2256 88.7134 29.9605 90.8751 29.7012C92.5611 29.5282 93.9446 28.5771 94.8957 26.9342H94.939L94.5931 28.8797L99.3487 28.3177L102.332 12.4944L97.4465 13.0564L95.4578 23.4756C95.1984 24.7726 94.766 25.3778 93.9014 25.4643C93.0367 25.5508 92.8205 25.032 93.0367 23.735L95.0254 13.3158L90.1401 13.8778L87.8487 25.8534Z" fill="var(--fill-0, black)" stroke="var(--stroke-0, #FFF200)" stroke-width="0.594974" stroke-miterlimit="3.8637"/>
<path id="Vector_14" fill-rule="evenodd" clip-rule="evenodd" d="M100.172 28.2313C100.172 28.2313 100.95 28.1448 102.679 27.9287C104.409 27.7125 105.489 25.94 105.662 24.5133C105.879 23.0866 106.7 19.0227 106.7 19.0227C107.089 16.9475 108.256 16.0828 109.986 15.9099C110.375 15.8666 110.764 15.8666 111.196 15.8666L112.104 10.9381L111.326 11.0245C109.899 11.1975 108.386 12.3648 107.478 14.3103H107.435L107.91 11.8027L103.155 12.3648L100.172 28.2313Z" fill="var(--fill-0, black)" stroke="var(--stroke-0, #FFF200)" stroke-width="0.594974" stroke-miterlimit="3.8637"/>
<path id="Vector_15" fill-rule="evenodd" clip-rule="evenodd" d="M106.137 42.3252C105.792 42.7575 105.662 43.2331 105.748 43.7519C105.792 44.2707 106.051 44.7463 106.483 45.0489C106.916 45.3948 107.391 45.5245 107.91 45.438C108.429 45.3948 108.861 45.1354 109.207 44.703C109.553 44.2707 109.683 43.7951 109.596 43.2763C109.553 42.7575 109.293 42.3252 108.861 41.9793C108.429 41.6335 107.953 41.5038 107.434 41.5902C106.872 41.6335 106.44 41.8929 106.137 42.3252ZM109.38 44.9192C108.991 45.3948 108.472 45.6974 107.867 45.7406C107.261 45.8271 106.699 45.6542 106.224 45.2651C105.748 44.876 105.446 44.3572 105.402 43.7519C105.316 43.1466 105.489 42.5846 105.878 42.109C106.267 41.6335 106.743 41.3308 107.391 41.2876C107.996 41.2011 108.558 41.3741 109.034 41.7632C109.51 42.1523 109.812 42.6278 109.855 43.2763C109.942 43.8816 109.769 44.4436 109.38 44.9192ZM107.953 42.6278C107.824 42.5846 107.651 42.5846 107.434 42.5846L107.089 42.6278L107.175 43.5357L107.564 43.4925C107.737 43.4493 107.867 43.4493 107.953 43.406C108.126 43.3196 108.169 43.1899 108.169 42.9737C108.126 42.7575 108.083 42.6711 107.953 42.6278ZM107.434 42.282C107.737 42.2387 107.953 42.2387 108.126 42.282C108.386 42.3684 108.558 42.5414 108.558 42.844C108.602 43.0602 108.515 43.2331 108.386 43.3628C108.299 43.4493 108.169 43.4925 108.04 43.5357C108.256 43.5357 108.386 43.6222 108.472 43.7087C108.602 43.8384 108.645 43.9681 108.645 44.0545V44.2275C108.645 44.2707 108.645 44.3572 108.688 44.4004C108.688 44.4436 108.731 44.4869 108.731 44.5301V44.5733L108.342 44.6166C108.342 44.6166 108.342 44.6166 108.342 44.5733C108.342 44.5733 108.342 44.5733 108.342 44.5301V44.4436L108.299 44.2707C108.256 43.9681 108.169 43.7951 107.996 43.7519C107.91 43.7087 107.737 43.7087 107.521 43.7087L107.175 43.7519L107.305 44.703L106.872 44.7463L106.57 42.282H107.434Z" fill="var(--fill-0, black)"/>
<path id="Vector_16" fill-rule="evenodd" clip-rule="evenodd" d="M53.002 27.5827L61.4756 26.6316L62.3403 22.1786L53.8234 23.1729L53.002 27.5827Z" fill="var(--fill-0, black)" stroke="var(--stroke-0, #FFF200)" stroke-width="0.594974" stroke-miterlimit="3.8637"/>
</g>
<defs>
<clipPath id="clip0_0_549">
<rect width="115" height="67.4436" fill="white"/>
</clipPath>
</defs>
</svg>
